<?xml version="1.0" standalone="no"?>
<!DOCTYPE svg PUBLIC "-//W3C//DTD SVG 20010904//EN"
 "http://www.w3.org/TR/2001/REC-SVG-20010904/DTD/svg10.dtd">
<svg version="1.0" xmlns="http://www.w3.org/2000/svg"
 width="32.000000pt" height="32.000000pt" viewBox="0 0 32.000000 32.000000"
 preserveAspectRatio="xMidYMid meet">

<g transform="translate(0.000000,32.000000) scale(0.100000,-0.100000)"
fill="#000000" stroke="none">
<path d="M0 160 l0 -160 160 0 160 0 0 160 0 160 -160 0 -160 0 0 -160z m189
106 c12 -18 21 -42 21 -52 1 -18 1 -18 15 0 14 18 16 17 35 -25 33 -74 22
-141 -29 -168 -15 -9 -17 -6 -13 19 5 37 -5 80 -19 80 -6 0 -19 10 -30 23
l-18 22 -1 -22 c0 -12 -12 -35 -26 -53 -18 -21 -25 -38 -22 -55 6 -30 -1 -31
-36 -4 -33 26 -33 61 -2 112 22 35 25 37 35 20 10 -17 10 -17 11 2 0 11 11 42
25 68 14 26 23 52 20 57 -3 6 -2 10 4 10 5 0 19 -15 30 -34z"/>
</g>
</svg>
